<svg width="49" height="49" viewBox="0 0 49 49" fill="none" xmlns="http://www.w3.org/2000/svg">
<rect width="49" height="49" rx="24.5" fill="#F4F4F4"/>
<path d="M20.0007 37C22.2082 37 23.9999 35.208 23.9999 33V29H20.0007C17.7931 29 16.0015 30.792 16.0015 33C16.0015 35.208 17.7931 37 20.0007 37Z" fill="#0ACF83"/>
<path d="M16.0015 25C16.0015 22.792 17.7931 21 20.0007 21H23.9999V29H20.0007C17.7931 29 16.0015 27.208 16.0015 25Z" fill="#A259FF"/>
<path d="M16.0015 17C16.0015 14.792 17.7931 13 20.0007 13H23.9999V21H20.0007C17.7931 21 16.0015 19.208 16.0015 17Z" fill="#F24E1E"/>
<path d="M24 13H27.9992C30.2068 13 31.9984 14.792 31.9984 17C31.9984 19.208 30.2068 21 27.9992 21H24V13Z" fill="#FF7262"/>
<path d="M31.9984 25C31.9984 27.208 30.2068 29 27.9992 29C25.7916 29 24 27.208 24 25C24 22.792 25.7916 21 27.9992 21C30.2068 21 31.9984 22.792 31.9984 25Z" fill="#1ABCFE"/>
</svg>
