<svg width="57" height="57" viewBox="0 0 57 57" fill="none" xmlns="http://www.w3.org/2000/svg">
<g filter="url(#filter0_d_211_271)">
<rect x="4" width="49" height="49" rx="24.5" fill="#F4F4F4"/>
<path d="M39.842 14.1675C39.4239 14.1675 39.0068 14.1664 38.5891 14.1664C37.5984 14.1642 36.6842 14.922 35.985 15.5228C35.3042 16.1079 34.721 16.8171 34.1642 17.5212C33.9644 16.9733 33.7019 16.435 33.4295 15.9435C33.0724 15.2426 32.372 14.5668 31.5879 14.4034C31.1909 14.3198 30.7459 14.3606 30.3429 14.3606C29.9932 14.3595 29.0006 14.3606 29.0006 14.3606C29.0006 14.3606 28.0065 14.3595 27.6575 14.3606C27.2538 14.3606 26.81 14.32 26.4124 14.4034C25.6283 14.5668 24.928 15.2426 24.5713 15.9435C24.2986 16.435 24.0357 16.9733 23.8364 17.5213C23.2797 16.8171 22.6961 16.1081 22.0153 15.5228C21.3158 14.9219 20.4025 14.1642 19.4109 14.1664C18.9933 14.1664 18.5756 14.1675 18.158 14.1675C17.5612 14.1684 16.9652 14.1692 16.368 14.1703C15.9336 14.1722 14.9712 14.0579 15.1989 14.7652C15.2541 14.9365 15.4486 15.0903 15.5588 15.2326C15.6845 15.3958 15.8101 15.5603 15.9189 15.7354C16.0928 16.0146 16.2611 16.2972 16.4237 16.5832C16.8149 17.2737 17.1446 18.0021 17.5331 18.6961C18.388 20.227 19.3024 21.7228 20.4073 23.0888C21.2233 24.0962 22.2088 25.1136 23.4282 25.6136C22.5076 27.3245 21.5908 29.0379 20.6733 30.7501C19.8785 32.231 19.0842 33.7041 18.2464 35.1613C18.2062 35.2324 18.1643 35.3021 18.1265 35.3735C18.0166 35.5809 17.8593 35.8707 17.8604 36.1092C17.8613 36.5824 18.5632 36.5965 18.8994 36.5987C19.2617 36.6009 19.6251 36.591 19.9876 36.5873C20.6178 36.5802 21.248 36.5719 21.8778 36.5656C22.2509 36.5614 22.63 36.576 23.0014 36.5405C23.9464 36.4495 24.8107 35.977 25.3683 35.2031C25.549 34.9513 27.2435 32.1723 27.9291 31.0496C28.1881 30.6245 29.0006 29.3541 29.0006 29.3541C29.0006 29.3541 29.8119 30.6245 30.0715 31.0496C30.7567 32.1723 32.4515 34.9513 32.6321 35.2032C33.1903 35.977 34.0537 36.4495 34.9989 36.5405C35.3707 36.576 35.7491 36.5614 36.1222 36.5656C36.7517 36.5719 37.3822 36.5802 38.0128 36.5873C38.3753 36.5909 38.7385 36.6009 39.1013 36.5987C39.4365 36.5965 40.1397 36.5824 40.1402 36.1092C40.1416 35.8707 39.9848 35.5809 39.8733 35.3735C39.8352 35.3021 39.7939 35.2324 39.7537 35.1613C38.9167 33.7041 38.1221 32.231 37.3278 30.7501C36.4092 29.0379 35.4924 27.3245 34.5711 25.6136C35.791 25.1135 36.7766 24.0963 37.5926 23.0888C38.6984 21.7228 39.6118 20.227 40.4673 18.6961C40.8552 18.0021 41.1849 17.2737 41.577 16.5833C41.7393 16.2972 41.9076 16.0145 42.0817 15.7354C42.19 15.5602 42.316 15.3958 42.4413 15.2327C42.5526 15.0903 42.7457 14.9365 42.8017 14.7652C43.0287 14.058 42.0677 14.1722 41.6332 14.1703C41.0356 14.1692 40.4388 14.1684 39.8421 14.1675H39.842Z" fill="#F9C638"/>
<path d="M31.0708 18.1067C31.1346 18.0976 31.1982 18.0867 31.2614 18.0741C31.3494 18.0557 31.4359 18.0307 31.5202 17.9993C31.7494 17.9194 31.8907 17.8124 31.9923 17.7312C32.07 17.6719 32.1285 17.6047 32.1485 17.5634C31.5953 17.5736 31.1834 17.5705 30.9112 17.5493C30.8372 17.5381 30.7832 17.7298 30.7476 18.1168C30.7437 18.1466 30.922 18.127 31.0708 18.1067ZM29.5505 20.8117H29.5497H29.5508H29.5505ZM28.3677 20.8117H28.3661H28.3677ZM28.278 20.6857C28.2711 20.6936 28.2672 20.7038 28.2672 20.7143C28.2675 20.7203 28.269 20.7263 28.2717 20.7317C28.2744 20.7371 28.2782 20.7419 28.2829 20.7457C28.3091 20.7686 28.3361 20.7924 28.3675 20.8117C28.5286 20.9235 28.7267 20.9824 28.9581 20.9857C29.1937 20.9824 29.3805 20.9271 29.5505 20.8116C29.5797 20.7929 29.61 20.772 29.6389 20.7457C29.6598 20.7281 29.6695 20.7012 29.6543 20.6833C29.6389 20.6664 29.612 20.6615 29.5836 20.6818C29.5583 20.703 29.5318 20.7229 29.5044 20.7413H29.5036C29.3475 20.8469 29.175 20.8973 28.9581 20.9008C28.7455 20.8973 28.5617 20.8436 28.4146 20.7417C28.4146 20.7413 28.414 20.7413 28.4133 20.7413C28.3869 20.7235 28.3626 20.7023 28.3388 20.6819C28.3346 20.6781 28.3297 20.6752 28.3243 20.6733C28.319 20.6715 28.3133 20.6707 28.3076 20.671C28.302 20.6714 28.2964 20.6729 28.2913 20.6754C28.2862 20.6779 28.2817 20.6814 28.278 20.6857ZM30.7019 20.3166C30.6997 20.3135 30.6977 20.3047 30.6966 20.3027C30.6966 20.3027 30.6999 20.3118 30.703 20.3168L30.7019 20.3166ZM32.0048 18.7702C31.9403 18.6423 31.8695 18.5495 31.7934 18.4935C31.5482 18.3122 31.1755 18.3109 30.9537 18.5287C30.8503 18.6304 30.7748 18.7542 30.7172 18.8869C30.5886 19.1872 30.4925 19.5278 30.5137 19.8586C30.5244 20.0082 30.5762 20.1633 30.6815 20.2727C30.8074 20.4067 30.989 20.4592 31.1642 20.4949C31.3379 20.5306 31.5407 20.5579 31.7033 20.4717C31.8907 20.3705 31.9695 20.1396 32.0213 19.9503C32.0871 19.7066 32.1485 19.446 32.1235 19.1911C32.1097 19.0506 32.0681 18.8971 32.0048 18.7701V18.7702Z" fill="#2A2D2C"/>
<path d="M31.3915 19.3875C31.5303 19.341 31.6209 19.3149 31.661 19.3119C31.4639 19.3265 31.3622 19.2465 31.3441 19.0749L31.3075 18.7173C31.2965 18.9471 31.2711 19.0939 31.2201 19.1696C31.1867 19.2168 31.1589 19.2496 31.1256 19.2642L31.0088 19.3011C30.9619 19.3148 30.9137 19.3306 30.8746 19.3306C31.0893 19.3119 31.2052 19.3666 31.2232 19.4854C31.2535 19.6581 31.2711 19.7706 31.2854 19.8254C31.2892 19.5587 31.3256 19.4146 31.3915 19.3876V19.3875ZM31.6538 19.9191L31.632 19.6978C31.6245 19.8397 31.6102 19.9304 31.5808 19.978C31.5628 20.0042 31.5407 20.0256 31.5184 20.0375L31.4496 20.0584C31.4201 20.0657 31.3915 20.0767 31.3659 20.0767C31.4962 20.0657 31.5697 20.0981 31.5841 20.1712C31.5986 20.2772 31.6135 20.3497 31.6209 20.3789C31.6209 20.2147 31.6429 20.1281 31.6862 20.113C31.7706 20.084 31.8248 20.0657 31.8501 20.0657C31.7298 20.0736 31.6648 20.0221 31.6537 19.9191" fill="white"/>
<path d="M27.1635 18.1171C27.1258 17.7299 27.0722 17.5382 26.9989 17.5495C26.726 17.5707 26.3148 17.5737 25.7609 17.5635C25.7807 17.6049 25.8405 17.6721 25.9168 17.7313C26.0193 17.8126 26.1592 17.9194 26.3893 17.9994C26.4736 18.0304 26.5599 18.0555 26.6478 18.0743C26.6659 18.0787 26.7469 18.093 26.8389 18.1068C26.9872 18.1272 27.1653 18.1468 27.1634 18.1171H27.1635ZM27.2073 20.3169C27.2095 20.312 27.2131 20.3029 27.2131 20.3029C27.2117 20.3076 27.2101 20.3122 27.2081 20.3167C27.2081 20.3167 27.2073 20.3167 27.2073 20.3169ZM25.7863 19.1913C25.7609 19.4461 25.822 19.7068 25.8887 19.9506C25.9397 20.1398 26.0184 20.3707 26.2061 20.4718C26.3692 20.558 26.5725 20.5307 26.745 20.4949C26.9199 20.4594 27.102 20.4068 27.2283 20.2728C27.3334 20.1635 27.3852 20.0084 27.396 19.8588C27.4172 19.5279 27.3213 19.1874 27.1919 18.8871C27.1351 18.7543 27.0595 18.6306 26.9554 18.5289C26.7348 18.311 26.3626 18.3123 26.1162 18.4936C26.0399 18.5496 25.9697 18.6424 25.9063 18.7702C25.8411 18.9022 25.8004 19.0448 25.7862 19.1913H25.7863Z" fill="#2A2D2C"/>
<path d="M26.518 19.3876C26.3794 19.3411 26.2887 19.315 26.2487 19.3119C26.4455 19.3266 26.5479 19.2466 26.5656 19.075L26.6019 18.7174C26.6127 18.9472 26.6381 19.094 26.6901 19.1697C26.7227 19.2169 26.7516 19.2497 26.7836 19.2643L26.9006 19.3012C26.9482 19.3149 26.9952 19.3306 27.0353 19.3306C26.8208 19.3119 26.7044 19.3667 26.6866 19.4855C26.6566 19.6582 26.6381 19.7707 26.624 19.8255C26.6204 19.5587 26.5838 19.4147 26.518 19.3877V19.3876ZM26.2557 19.9192L26.278 19.6979C26.2851 19.8397 26.3003 19.9305 26.3293 19.9781C26.3471 20.0043 26.3692 20.0257 26.3906 20.0376L26.4598 20.0585C26.4893 20.0658 26.518 20.0768 26.5438 20.0768C26.4124 20.0658 26.3394 20.0982 26.3254 20.1712C26.3108 20.2773 26.2957 20.3497 26.2887 20.379C26.2887 20.2148 26.2665 20.1282 26.2231 20.1131C26.1394 20.0841 26.0845 20.0658 26.0589 20.0658C26.1793 20.0737 26.2452 20.0222 26.2557 19.9192ZM18.2087 35.4162C18.1536 35.5207 18.0884 35.6424 18.0383 35.7647C17.9871 35.8859 17.9524 36.0091 17.9524 36.1078V36.1094C17.954 36.2039 17.9854 36.2643 18.0403 36.3182C18.0954 36.3709 18.1803 36.4124 18.2797 36.4417C18.4805 36.4989 18.7332 36.505 18.8993 36.5058C18.9365 36.5067 18.9739 36.5067 19.0106 36.5067C19.3343 36.5067 19.66 36.4976 19.9864 36.4946L21.8767 36.4728C21.9426 36.4728 22.0081 36.4723 22.0735 36.4723C22.1517 36.4723 22.2291 36.4728 22.306 36.4728C22.5377 36.4728 22.7679 36.4695 22.9926 36.4477C23.9127 36.3595 24.7506 35.9002 25.293 35.1479C25.3341 35.0925 25.4751 34.8683 25.6694 34.5561C25.8641 34.2437 26.1151 33.8378 26.3807 33.4042C26.9125 32.5383 27.5076 31.5616 27.8503 31.0012C28.111 30.5739 28.9212 29.3052 28.9218 29.3043C28.9303 29.2912 28.942 29.2804 28.9557 29.2728C28.9695 29.2653 28.9848 29.2613 29.0005 29.2611C29.032 29.2611 29.0615 29.2785 29.0779 29.3043C29.0783 29.3047 29.8904 30.5739 30.1508 31.0012C30.6643 31.8425 31.7462 33.6169 32.3309 34.556C32.5251 34.8683 32.6664 35.0925 32.7075 35.1479C33.2486 35.9002 34.087 36.3595 35.0077 36.4477C35.232 36.4695 35.4629 36.4728 35.6938 36.4728C35.7712 36.4728 35.8486 36.4723 35.9266 36.4723C35.9918 36.4723 36.0575 36.4728 36.1235 36.4728C36.7528 36.48 37.3832 36.4874 38.0141 36.4946C38.3403 36.4976 38.6656 36.5067 38.9894 36.5067C39.026 36.5067 39.0635 36.5067 39.1007 36.5058C39.225 36.505 39.3982 36.5028 39.5622 36.4758C39.7266 36.4507 39.8776 36.3976 39.9595 36.3182C40.0144 36.2643 40.0457 36.2038 40.0473 36.1094V36.1067C40.0473 36.008 40.0126 35.8852 39.9626 35.7635C39.9124 35.6424 39.8467 35.5206 39.7914 35.4176C39.7542 35.3479 39.714 35.2787 39.6735 35.2087C38.8359 33.75 38.04 32.2752 37.2462 30.7943C36.3272 29.0825 35.4111 27.3678 34.4898 25.6574C34.4836 25.646 34.4799 25.6333 34.479 25.6204C34.4781 25.6074 34.4799 25.5944 34.4845 25.5822C34.4887 25.5699 34.4955 25.5586 34.5044 25.5491C34.5133 25.5397 34.5242 25.5323 34.5363 25.5274C35.7313 25.0389 36.7085 24.0331 37.5204 23.031C38.6222 21.6703 39.5324 20.1798 40.3865 18.6507C40.6807 18.1242 40.943 17.5756 41.2262 17.0354C40.6849 17.8958 39.8925 18.743 38.8627 19.5753C37.5085 20.6666 35.2075 21.7439 31.9829 22.796C28.8726 23.8123 26.5872 24.9912 25.1176 26.3468C24.4216 26.9809 23.9312 27.4207 23.648 27.654C23.583 27.7205 23.2729 28.0445 22.7316 28.6442C22.0746 29.3831 21.378 30.2667 20.6509 31.2955C20.3752 31.6859 20.1407 32.0186 19.9393 32.306C19.4125 33.2782 18.8789 34.2475 18.3266 35.2088C18.2863 35.2787 18.246 35.3479 18.2087 35.4162Z" fill="white"/>
<path d="M42.6446 14.7147C42.6307 14.7604 42.584 14.8291 42.5192 14.9004C42.4553 14.9726 42.3781 15.0469 42.3118 15.1315L42.3107 15.1326C42.1853 15.296 42.0558 15.4643 41.9417 15.6492L41.9426 15.6481C41.7667 15.929 41.5972 16.2137 41.4342 16.5022C41.037 17.2015 40.7069 17.9301 40.3237 18.6157C39.4704 20.1433 38.5615 21.6305 37.4645 22.9853C36.6553 23.9856 35.685 24.9807 34.5088 25.4612C34.4875 25.47 34.4683 25.4832 34.4524 25.4998C34.4365 25.5165 34.4243 25.5362 34.4164 25.5579C34.4008 25.6017 34.4047 25.6503 34.4263 25.6912C35.3472 27.4021 36.2638 29.1155 37.1832 30.8281C37.9769 32.309 38.7731 33.7838 39.6109 35.2433L39.6107 35.2422C39.6514 35.3148 39.6914 35.3837 39.7284 35.4509C39.7837 35.5545 39.8478 35.6737 39.8963 35.7911C39.9452 35.9074 39.9763 36.0231 39.9758 36.106V36.1093C39.9736 36.1862 39.9531 36.2231 39.9113 36.2659C39.8482 36.3289 39.7082 36.3813 39.5509 36.4052C39.3936 36.4303 39.2241 36.4334 39.1004 36.4345H38.9772C38.6585 36.4345 38.3376 36.4261 38.0144 36.4231C37.3838 36.4154 36.754 36.4072 36.1238 36.4013C36.0668 36.4003 36.0098 36.3998 35.9528 36.3999C35.8635 36.3999 35.7747 36.4005 35.6861 36.4005C35.458 36.4005 35.2328 36.3975 35.0144 36.3766C34.1143 36.2897 33.2949 35.8407 32.7657 35.107C32.7481 35.0825 32.7011 35.0112 32.637 34.9101C32.1841 34.1973 30.8117 31.9456 30.2117 30.9639C29.9502 30.535 29.1393 29.2665 29.1391 29.2654C29.1243 29.2422 29.1038 29.223 29.0795 29.2097C29.0553 29.1965 29.0282 29.1895 29.0005 29.1895C28.9445 29.1895 28.892 29.2182 28.8617 29.2654C28.8609 29.2665 28.0503 30.535 27.7883 30.9639C27.4462 31.5251 26.8505 32.5004 26.319 33.3666C26.0532 33.7999 25.8028 34.2055 25.6082 34.5182C25.5273 34.6493 25.4455 34.7799 25.363 34.91C25.2992 35.0112 25.252 35.0825 25.2343 35.1073C24.7059 35.8407 23.8863 36.2897 22.9857 36.3765C22.7675 36.3974 22.5427 36.4005 22.314 36.4005C22.2253 36.4005 22.1363 36.3999 22.0473 36.3999C21.9902 36.3999 21.9335 36.4002 21.876 36.4013C21.2457 36.4072 20.6158 36.4154 19.9857 36.4231C19.6628 36.4261 19.3415 36.4345 19.0228 36.4345H18.8999C18.7349 36.4336 18.4869 36.427 18.3001 36.3724C18.2065 36.3462 18.132 36.3074 18.0896 36.2657C18.0478 36.2231 18.0276 36.1868 18.0254 36.1088V36.106C18.0249 36.0231 18.0555 35.9074 18.1047 35.7908C18.1532 35.6735 18.2169 35.5541 18.2717 35.4509C18.3072 35.3842 18.3484 35.3153 18.3896 35.2422L18.389 35.2433C19.2278 33.7838 20.0237 32.309 20.8182 30.8275C21.7366 29.1155 22.6528 27.4021 23.5731 25.6913C23.5951 25.6502 23.5987 25.6017 23.5832 25.5579C23.5754 25.5362 23.5631 25.5164 23.5472 25.4998C23.5312 25.4831 23.512 25.4699 23.4907 25.4611C22.3148 24.9807 21.3445 23.9856 20.535 22.9852C19.4393 21.6302 18.5293 20.1433 17.6769 18.6159C17.2928 17.9301 16.9631 17.2015 16.5663 16.5022C16.4031 16.2139 16.2336 15.9293 16.058 15.6484L16.0585 15.649C15.9441 15.4646 15.8156 15.2959 15.6894 15.1324C15.623 15.0469 15.5453 14.972 15.4808 14.8999C15.4166 14.8287 15.3689 14.7604 15.356 14.7147C15.3362 14.6542 15.329 14.6064 15.329 14.5711C15.3301 14.5142 15.3431 14.4891 15.3637 14.4626C15.3949 14.4238 15.4748 14.3822 15.591 14.3595C15.7065 14.3359 15.8494 14.329 15.9897 14.329C16.1205 14.329 16.2478 14.3345 16.3556 14.3345H16.3685C16.9655 14.3334 17.5614 14.3328 18.1582 14.3317C18.5756 14.3317 18.9938 14.3309 19.4109 14.3309H19.4156C19.8674 14.3306 20.3152 14.505 20.7398 14.7604C21.1637 15.0153 21.5602 15.3484 21.9076 15.6475C22.5743 16.2201 23.1518 16.9207 23.7069 17.6235C23.7441 17.6704 23.8034 17.6938 23.8624 17.6839C23.9213 17.6745 23.9701 17.6339 23.9905 17.5777C24.1858 17.0406 24.445 16.5096 24.7147 16.0234L24.7178 16.0182C25.0534 15.3533 25.7316 14.7094 26.4461 14.5645C26.6301 14.526 26.8321 14.5153 27.0409 14.5153C27.2442 14.5153 27.4528 14.5252 27.6574 14.5252C27.7735 14.5248 27.9619 14.5248 28.1608 14.5248C28.5584 14.5248 28.9992 14.5252 29.0003 14.5252C29.0014 14.5252 29.4419 14.5248 29.8395 14.5248C30.0385 14.5248 30.2263 14.5248 30.3421 14.5252C30.5472 14.5252 30.7559 14.5153 30.9597 14.5153C31.168 14.5153 31.3708 14.5259 31.5537 14.5645C32.2681 14.7095 32.947 15.3533 33.2828 16.0182L33.2856 16.0234C33.5553 16.5096 33.8137 17.0406 34.0096 17.5777C34.03 17.6339 34.0793 17.6745 34.1383 17.6839C34.1672 17.6886 34.1969 17.6855 34.2242 17.6749C34.2515 17.6643 34.2755 17.6465 34.2936 17.6235C34.8485 16.9207 35.426 16.2198 36.0918 15.6475C36.4401 15.3484 36.8366 15.0153 37.2606 14.7604C37.6849 14.505 38.1331 14.3306 38.5847 14.3309H38.5891C39.0065 14.3309 39.4239 14.3317 39.8421 14.3317C40.4382 14.3328 41.0353 14.3334 41.6329 14.3345H41.6456C41.753 14.3345 41.8805 14.329 42.0112 14.329C42.198 14.3282 42.3911 14.3425 42.5128 14.3877C42.574 14.4097 42.6148 14.4367 42.6364 14.4626C42.6575 14.489 42.6699 14.5142 42.671 14.5711C42.671 14.6063 42.6638 14.6547 42.6446 14.7147ZM42.8862 14.2486C42.7762 14.1226 42.6258 14.0686 42.4749 14.0373C42.3225 14.006 42.1619 14 42.0112 14C41.8715 14 41.7414 14.0058 41.6456 14.0058H41.6332C41.0359 14.0047 40.4388 14.0042 39.8421 14.0031C39.4242 14.0031 39.007 14.002 38.5891 14.002H38.5899L38.5847 14.0016C38.0474 14.0022 37.5446 14.2059 37.0909 14.4786C36.6371 14.752 36.2283 15.0971 35.8778 15.3977C35.2554 15.9336 34.7197 16.5645 34.2134 17.1973C34.027 16.7325 33.8046 16.2807 33.5729 15.8636C33.1943 15.1285 32.4734 14.4239 31.6209 14.2422C31.4027 14.1964 31.179 14.1863 30.9597 14.1863C30.7459 14.1863 30.5362 14.1959 30.3429 14.1959C30.2269 14.1957 30.0387 14.1957 29.8395 14.1957L29.0003 14.1959L28.1608 14.1957C27.9616 14.1957 27.7735 14.1957 27.6567 14.1959C27.4635 14.1959 27.2543 14.1863 27.0409 14.1863C26.8213 14.1863 26.5979 14.1964 26.3785 14.2424C25.5245 14.4243 24.8024 15.1315 24.4244 15.8688H24.4247C24.1943 16.2842 23.9722 16.7342 23.7866 17.1973C23.2807 16.5645 22.7449 15.9331 22.1225 15.3977C21.7723 15.0971 21.3634 14.752 20.9097 14.4786C20.4556 14.2059 19.9531 14.0022 19.4156 14.0016L19.4068 14.002C18.9905 14.002 18.5737 14.0031 18.158 14.0031C17.5609 14.0042 16.965 14.0047 16.3677 14.0058H16.3556C16.2591 14.0058 16.1288 14 15.9897 14C15.7892 14.0005 15.5701 14.0097 15.3767 14.0778C15.2797 14.1124 15.1869 14.1645 15.1139 14.2486C15.0412 14.3316 14.9987 14.4477 15 14.5711C15 14.6486 15.015 14.7295 15.0419 14.8153C15.0841 14.9409 15.1618 15.0354 15.2351 15.1194C15.31 15.2023 15.3844 15.2756 15.4287 15.3335C15.5541 15.4955 15.6757 15.6558 15.7786 15.8225L15.7789 15.8227C15.9523 16.0995 16.1194 16.3802 16.2801 16.6644C16.6673 17.3461 16.9967 18.0742 17.3895 18.7766C18.2463 20.3108 19.1652 21.8148 20.2791 23.1921C21.0659 24.1619 22.0164 25.1488 23.2014 25.6876C22.3083 27.3486 21.4183 29.0111 20.5281 30.6724C19.7338 32.1533 18.9398 33.625 18.1036 35.0795L18.1034 35.08C18.0643 35.1486 18.0218 35.22 17.9813 35.2968C17.9268 35.3993 17.8574 35.5272 17.8003 35.6652C17.7442 35.8033 17.6967 35.9509 17.6962 36.106V36.1129H17.6965C17.6959 36.271 17.7631 36.4118 17.862 36.5039C18.0127 36.6446 18.2096 36.6981 18.3971 36.7303C18.5851 36.76 18.7704 36.7622 18.8979 36.7629C18.9395 36.7631 18.9817 36.7634 19.0228 36.7634C19.3472 36.7634 19.6697 36.7551 19.9892 36.7521C20.6202 36.7449 21.2503 36.7361 21.8795 36.7303C21.9354 36.7297 21.9914 36.7294 22.0473 36.7294C22.1354 36.7294 22.2244 36.7298 22.314 36.7298C22.5449 36.7298 22.781 36.727 23.017 36.7041C24.0067 36.6091 24.915 36.1129 25.5013 35.299C25.5297 35.2602 25.5749 35.1897 25.641 35.0864C26.0981 34.367 27.4692 32.1179 28.0694 31.1353C28.1978 30.9247 28.4658 30.5011 28.7011 30.1306C28.8154 29.9508 28.921 29.7844 29.0005 29.6599C29.08 29.7844 29.1854 29.9508 29.2997 30.1306C29.5351 30.5011 29.8025 30.9247 29.9316 31.1353C30.4201 31.9372 30.9099 32.7385 31.4008 33.539C31.667 33.9724 31.9174 34.3785 32.1127 34.6923C32.2103 34.8494 32.2942 34.9833 32.3593 35.0864C32.4251 35.1897 32.4706 35.2599 32.4984 35.2988C33.0855 36.1129 33.9936 36.6091 34.9826 36.7041C35.2193 36.727 35.4552 36.7298 35.6861 36.7298C35.7758 36.7298 35.8646 36.7294 35.9528 36.7294C36.0092 36.7294 36.0646 36.7298 36.1203 36.7303C36.7495 36.7361 37.3799 36.7449 38.0108 36.7521C38.3306 36.7551 38.6528 36.7634 38.9773 36.7634C39.0186 36.7634 39.0608 36.7631 39.102 36.7629C39.2729 36.7612 39.5431 36.7592 39.7916 36.6884C39.9159 36.6523 40.0386 36.5987 40.1381 36.5041C40.2385 36.4112 40.3066 36.2691 40.3044 36.1092V36.1059C40.3042 35.9509 40.2571 35.8033 40.2006 35.6649C40.1429 35.5269 40.0735 35.3987 40.0181 35.2957C39.978 35.2206 39.936 35.1494 39.8967 35.08L39.8963 35.0795C39.0608 33.625 38.2667 32.1533 37.473 30.6724C36.5817 29.0111 35.6916 27.3488 34.7984 25.6877C35.9834 25.1488 36.9338 24.1619 37.7204 23.1924C38.8351 21.8148 39.7534 20.3108 40.611 18.7766C41.0037 18.0742 41.3328 17.3461 41.7202 16.6644C41.8809 16.3804 42.0479 16.1 42.2211 15.8234L42.2219 15.822C42.3244 15.6561 42.4467 15.4955 42.5716 15.3327L42.5707 15.3338C42.6159 15.2757 42.6906 15.2021 42.7649 15.1192C42.8386 15.0352 42.9159 14.9409 42.9578 14.8159C42.9853 14.7296 43 14.6487 43 14.5711C43.0016 14.4477 42.9593 14.332 42.8862 14.2486Z" fill="#2A2D2C"/>
</g>
<defs>
<filter id="filter0_d_211_271" x="0" y="0" width="57" height="57" filterUnits="userSpaceOnUse" color-interpolation-filters="sRGB">
<feFlood flood-opacity="0" result="BackgroundImageFix"/>
<feColorMatrix in="SourceAlpha" type="matrix" values="0 0 0 0 0 0 0 0 0 0 0 0 0 0 0 0 0 0 127 0" result="hardAlpha"/>
<feOffset dy="4"/>
<feGaussianBlur stdDeviation="2"/>
<feComposite in2="hardAlpha" operator="out"/>
<feColorMatrix type="matrix" values="0 0 0 0 0 0 0 0 0 0 0 0 0 0 0 0 0 0 0.25 0"/>
<feBlend mode="normal" in2="BackgroundImageFix" result="effect1_dropShadow_211_271"/>
<feBlend mode="normal" in="SourceGraphic" in2="effect1_dropShadow_211_271" result="shape"/>
</filter>
</defs>
</svg>
